<svg width="55" height="15" viewBox="0 0 55 15" fill="none" xmlns="http://www.w3.org/2000/svg">
<path d="M0.16488 9.92746H4.45177C4.45177 10.4881 4.97938 10.8673 7.6999 10.8673C10.2391 10.8673 10.6183 10.7024 10.6183 10.2737C10.6183 9.77907 10.2391 9.71311 7.53502 9.63067C2.32481 9.46579 0.32976 8.60842 0.32976 5.92087C0.32976 3.38172 2.81945 2.29351 7.37014 2.29351C11.8714 2.29351 14.4105 3.38172 14.4105 6.33307H10.1236C10.1236 5.72301 9.13436 5.59111 7.04038 5.59111C5.02885 5.59111 4.61665 5.69004 4.61665 6.13521C4.61665 6.58039 5.02885 6.5639 7.53502 6.66283C12.0857 6.8442 14.9052 7.15747 14.9052 10.1748C14.9052 13.357 12.2671 14.1649 7.53502 14.1649C2.80296 14.1649 0.16488 13.357 0.16488 9.92746ZM32.3505 3.94231C34.0818 3.94231 36.4396 4.63481 36.4396 8.04782V14H32.4824V9.82853C32.4824 8.13027 32.0373 7.40479 30.5863 7.40479C29.5805 7.40479 28.7396 7.83348 27.8988 8.65788V14H23.9416V9.82853C23.9416 8.13027 23.4965 7.40479 22.0455 7.40479C21.0397 7.40479 20.1989 7.83348 19.358 8.65788V14H15.4008V4.10719H19.358V5.75599C20.2318 4.93159 21.4025 3.94231 23.8097 3.94231C25.0463 3.94231 26.6127 4.30505 27.3876 5.75599C28.4264 4.76671 29.9433 3.94231 32.3505 3.94231ZM43.507 14.1649C39.3025 14.1649 36.7799 12.7139 36.7799 9.05359C36.7799 5.39325 39.3025 3.94231 43.507 3.94231C47.7114 3.94231 50.2341 5.39325 50.2341 9.05359C50.2341 12.7139 47.7114 14.1649 43.507 14.1649ZM43.507 10.8673C45.2712 10.8673 46.277 10.5045 46.277 9.05359C46.277 7.60265 45.2712 7.23991 43.507 7.23991C41.7428 7.23991 40.737 7.60265 40.737 9.05359C40.737 10.5045 41.7428 10.8673 43.507 10.8673ZM50.7277 0.809585H54.6848V14H50.7277V0.809585Z" fill="#060B11"/>
</svg>
