<svg width="736" height="384" viewBox="0 0 736 384" fill="none" xmlns="http://www.w3.org/2000/svg">
<path d="M296.125 134.011C276.268 138.328 278.319 155.235 286.413 158.832C291.269 160.991 302.385 162.61 307.996 151.818C314.903 134.551 302.96 132.752 296.125 134.011Z" fill="white"/>
<path d="M226.273 134.711C206.416 149.82 206.307 169.245 214.403 173.562C220.876 177.014 240.301 172.483 255.95 160.072C265.123 151.439 254.87 143.523 247.318 138.489C235.985 130.935 230.049 131.838 226.273 134.711Z" fill="white"/>
<path d="M656.681 11.2049C638.875 8.50701 641.572 21.9967 647.508 26.3134C649.307 27.9321 653.983 30.0905 658.3 25.7737C664.343 17.572 660.998 11.8589 656.681 11.2049Z" fill="white"/>
<path d="M619.448 1.49232C602.181 -2.28501 604.879 12.8237 612.973 17.1404C620.529 21.1699 625.024 17.1404 626.462 15.5216C633.369 8.18318 626.462 3.0267 619.448 1.49232Z" fill="white"/>
<path d="M97.1261 355.94C48.3472 353.782 12.0508 373.748 0 384H736V189.739C726.072 184.99 713.157 191.718 707.941 195.675C657.436 95.0906 584.735 117.79 554.698 141.713C474.407 83.0031 406.85 124.805 383.109 153.045C333.466 148.728 307.026 187.221 300.012 207.007C233.103 210.029 200.907 266.544 193.173 294.424C134.466 289.676 104.68 333.456 97.1261 355.94Z" fill="white"/>
<path d="M110.076 371.085C71.6576 363.335 37.9512 376.466 25.9004 384.001H736V237.083C725.64 228.472 712.978 231.701 707.941 234.392C663.479 182.729 593.369 218.965 563.871 243.541C503.437 134.617 434.01 170.889 406.851 202.641C365.842 194.891 340.841 220.938 333.466 234.93C246.592 209.637 218.354 276.548 210.98 319.421C157.452 320.713 121.408 354.402 110.076 371.085Z" fill="#E3F2FE"/>
<path d="M305.947 352.151C188.533 302.918 131.48 352.87 117.631 384.001H736V278.194C670.386 232.416 622.686 284.672 607.038 316.522C575.095 294.065 540.489 295.648 527.179 299.247C518.114 248.287 475.199 224.031 454.874 218.273C405.232 205.317 371.957 243.465 361.525 264.159C291.594 267.614 295.335 324.26 305.947 352.151Z" fill="white"/>
<path d="M529.604 325.546C401.564 250.639 336.142 333.304 319.437 384H736V309.85C676.075 279.974 632.353 322.299 617.983 347.196C589.098 322.082 547.029 322.299 529.604 325.546Z" fill="#E3F2FE"/>
<path d="M558.475 75.4166C540.776 94.4101 553.978 100.957 562.791 101.856C569.267 102.756 599.484 105.633 611.894 98.0792C625.924 87.2875 616.031 77.7547 608.657 73.2582C587.505 57.2865 565.13 68.0423 558.475 75.4166Z" fill="white"/>
<path d="M167.069 246.842C144.947 240.366 148.387 226.502 154.659 222.02C158.159 219.52 169.769 219.322 174.624 214.466C182.179 205.833 188.654 204.214 190.273 203.675C220.492 193.603 222.828 210.689 222.108 220.402C220.709 239.287 182.717 250.619 167.069 246.842Z" fill="white"/>
</svg>
