<svg width="959" height="500" viewBox="0 0 959 500" fill="none" xmlns="http://www.w3.org/2000/svg">
<path d="M385.848 174.267C359.974 179.891 362.647 201.921 373.192 206.608C379.52 209.421 394.004 211.53 401.316 197.468C410.315 174.97 394.753 172.626 385.848 174.267Z" fill="white"/>
<path d="M294.831 175.179C268.958 194.866 268.816 220.177 279.365 225.801C287.799 230.299 313.11 224.395 333.499 208.224C345.452 196.975 332.093 186.66 322.253 180.101C307.486 170.258 299.752 171.435 294.831 175.179Z" fill="white"/>
<path d="M855.649 14.2517C832.447 10.7364 835.961 28.3133 843.696 33.9379C846.04 36.0471 852.133 38.8594 857.758 33.2348C865.632 22.548 861.274 15.1039 855.649 14.2517Z" fill="white"/>
<path d="M807.134 1.59637C784.635 -3.32545 788.15 16.3611 798.697 21.9857C808.541 27.2361 814.398 21.9857 816.273 19.8764C825.272 10.3145 816.273 3.59565 807.134 1.59637Z" fill="white"/>
<path d="M126.554 463.438C62.9959 460.626 15.7021 486.641 0 500H959V246.88C946.063 240.692 929.236 249.458 922.44 254.614C856.632 123.554 761.903 153.131 722.765 184.302C618.147 107.804 530.122 162.272 499.186 199.068C434.503 193.443 400.052 243.598 390.912 269.379C303.73 273.317 261.78 346.956 251.702 383.283C175.207 377.096 136.397 434.142 126.554 463.438Z" fill="white"/>
<path d="M143.428 483.171C93.3692 473.073 49.4501 490.183 33.748 500H959V308.568C945.501 297.348 929.002 301.556 922.44 305.062C864.506 237.745 773.153 284.96 734.718 316.982C655.973 175.056 565.51 222.318 530.122 263.69C476.688 253.592 444.112 287.531 434.503 305.763C321.307 272.806 284.513 359.99 274.904 415.854C205.159 417.537 158.193 461.433 143.428 483.171Z" fill="#E3F2FE"/>
<path d="M398.646 458.5C245.656 394.351 171.317 459.438 153.271 500H959V362.135C873.505 302.488 811.353 370.576 790.964 412.076C749.341 382.815 704.251 384.878 686.908 389.568C675.096 323.168 619.178 291.562 592.695 284.06C528.012 267.178 484.656 316.884 471.063 343.848C379.944 348.349 384.818 422.159 398.646 458.5Z" fill="white"/>
<path d="M690.069 423.835C523.234 326.231 437.99 433.943 416.223 500H959V403.383C880.919 364.455 823.949 419.604 805.225 452.044C767.589 419.322 712.773 419.604 690.069 423.835Z" fill="#E3F2FE"/>
<path d="M727.686 97.919C704.625 122.667 721.827 131.198 733.311 132.37C741.748 133.542 781.121 137.291 797.291 127.448C815.572 113.387 802.682 100.966 793.073 95.1067C765.512 74.2957 736.358 88.3103 727.686 97.919Z" fill="white"/>
<path d="M217.689 321.284C188.864 312.847 193.346 294.781 201.52 288.942C206.079 285.685 221.207 285.427 227.534 279.099C237.377 267.85 245.814 265.741 247.923 265.038C287.299 251.914 290.343 274.178 289.405 286.833C287.582 311.441 238.078 326.205 217.689 321.284Z" fill="white"/>
</svg>
