<svg width="781" height="542" viewBox="0 0 781 542" fill="none" xmlns="http://www.w3.org/2000/svg">
<path d="M550.347 287.596C524.908 315.14 547.208 328.608 567.425 334.177C573.314 336.034 580.379 337.284 593.923 335.696C619.833 332.658 611.589 348.354 644.566 348.86C670.947 346.835 668.121 326.076 665.176 315.95C660.465 301.368 642.799 301.266 622.189 297.216C601.579 292.153 607.912 288.74 595.247 281.225C570.621 267.448 554.438 283.167 550.347 287.596Z" fill="white"/>
<path d="M577.264 365.876C580.039 382.206 604.676 377.903 608.211 370.877C610.566 366.895 611.482 356.953 596.303 349.036C580.557 342.806 575.71 356.725 577.264 365.876Z" fill="white"/>
<path d="M462.371 331.115C445.485 347.439 465.187 372.628 482.775 379.664C497.551 385.575 503.179 393.736 525.695 387.404C541.878 381.072 543.286 360.667 533.436 357.852C523.585 355.038 513.031 351.051 509.513 348.002C501.772 342.373 495.441 331.585 489.812 325.487C478.554 314.229 467.062 325.721 462.371 331.115Z" fill="white"/>
<path d="M723.436 426.56C687.975 423.182 696.7 449.075 707.252 455.407C717.809 463.851 731.881 469.479 742.433 468.776C764.246 466.665 763.072 452.593 760.023 446.26C748.767 426.56 745.599 428.67 723.436 426.56Z" fill="white"/>
<path d="M624.288 433.895C619.222 448.53 623.583 452.892 627.104 454.299C636.248 457.113 645.317 454.67 646.802 454.299C658.06 451.485 656.89 440.227 653.137 436.006C636.814 416.868 627.103 426.624 624.288 433.895Z" fill="white"/>
<path d="M310.095 157.892C323.8 176.423 334.123 159.278 329.884 148.092C325.928 137.651 318.057 137.747 315.255 138.101C302.177 139.374 304.529 150.365 310.095 157.892Z" fill="white"/>
<path d="M168.386 24.2425C153.751 27.6198 157.128 38.3145 160.646 43.2398C162.288 45.8196 168.104 48.8686 178.236 40.4254C179.68 39.2527 181.754 37.6109 182.458 34.0929C182.458 23.5387 173.311 23.0698 168.386 24.2425Z" fill="white"/>
<path d="M204.161 52.3217C192.006 61.2374 194.594 70.0397 204.161 80.6265C225.683 104.446 228.306 128.95 231.253 138.358C234.606 149.06 240.69 158.676 248.291 153.185C252.123 150.417 258.879 135.91 257.764 118.635C261.108 80.6265 251.634 67.5214 244.945 61.2376C226.557 43.9625 208.462 51.3222 204.161 52.3217Z" fill="white"/>
<path d="M138.485 60.422C96.8693 -15.0534 27.6502 -3.8823 0 11.1377V542H781C720.263 458.076 633.845 464.788 598.228 478.634C568.422 423.999 503.795 423.483 475.208 430.054C443.715 310.082 328.99 301.68 275.564 312.476C257.006 262.91 229.403 234.09 217.921 225.876C222.42 95.2023 166.838 61.126 138.485 60.422Z" fill="white"/>
<path d="M111.082 107.743C89.0069 29.4782 27.8294 32.9034 0 44.3991V542H761.299C712.055 485.131 608.237 491.559 562.484 501.882C524.185 430.831 478.545 444.199 461.564 445.606C411.754 371.283 310.604 342.35 266.738 340.707C254.851 287.78 216.032 245.926 198.108 231.615C205.466 132.518 143.156 107.743 111.082 107.743Z" fill="#E3F2FE"/>
<path d="M389.772 534.249C360.694 503.813 325.391 499.961 311.374 501.84C316.838 454.165 305.53 351.065 216.584 320.064C194.49 265.109 123.79 168.959 0.634187 223.069C0.634187 229.833 -0.792133 438.43 0.633286 541.999H667.016C636.797 531.854 598.834 522.272 583.629 518.749C487.841 493.385 414.48 518.514 389.772 534.249Z" fill="white"/>
<path d="M165.154 349.734C226.354 395.204 257.859 496.857 265.962 542H0V290.089C92.0858 253.601 148.472 314.649 165.154 349.734Z" fill="#E3F2FE"/>
<path d="M97.8009 475.057C117.502 359.495 25.5643 310.404 0 329.194V541.999H239.929C228.671 495.774 184.579 503.948 163.94 513.813C154.934 468.152 116.095 468.95 97.8009 475.057Z" fill="white"/>
<path d="M83.7052 508.85C79.6988 409.542 26.2324 408.786 0 414.429V542H170.272C143.372 496.296 101.114 500.857 83.7052 508.85Z" fill="#E3F2FE"/>
</svg>
