<svg width="864" height="599" viewBox="0 0 864 599" fill="none" xmlns="http://www.w3.org/2000/svg">
<path d="M608.478 317.725C580.352 348.178 605.007 363.068 627.36 369.226C633.871 371.279 641.682 372.661 656.657 370.905C685.304 367.547 676.189 384.9 712.648 385.46C741.816 383.221 738.691 360.269 735.436 349.073C730.227 332.951 710.695 332.839 687.908 328.361C665.121 322.763 672.123 318.99 658.12 310.681C630.893 295.448 613.001 312.828 608.478 317.725Z" fill="white"/>
<path d="M638.238 404.273C641.306 422.328 668.545 417.571 672.453 409.802C675.057 405.4 676.07 394.408 659.288 385.654C641.879 378.766 636.519 394.155 638.238 404.273Z" fill="white"/>
<path d="M511.21 365.841C492.54 383.889 514.323 411.739 533.769 419.518C550.105 426.053 556.328 435.076 581.222 428.075C599.114 421.074 600.671 398.514 589.78 395.402C578.889 392.29 567.22 387.882 563.331 384.511C554.772 378.288 547.772 366.36 541.549 359.618C529.102 347.171 516.396 359.877 511.21 365.841Z" fill="white"/>
<path d="M799.85 471.366C760.642 467.632 770.29 496.26 781.956 503.261C793.628 512.596 809.186 518.819 820.853 518.041C844.97 515.708 843.672 500.149 840.301 493.148C827.856 471.366 824.354 473.7 799.85 471.366Z" fill="white"/>
<path d="M690.229 479.476C684.628 495.657 689.45 500.48 693.342 502.036C703.452 505.147 713.479 502.446 715.121 502.036C727.568 498.924 726.274 486.477 722.125 481.81C704.078 460.65 693.341 471.438 690.229 479.476Z" fill="white"/>
<path d="M342.849 174.32C358.001 194.808 369.414 175.852 364.728 163.486C360.354 151.942 351.652 152.048 348.554 152.439C334.094 153.847 336.695 165.998 342.849 174.32Z" fill="white"/>
<path d="M186.172 26.554C169.991 30.288 173.725 42.1124 177.615 47.5579C179.43 50.4103 185.86 53.7813 197.062 44.4462C198.659 43.1497 200.952 41.3345 201.73 37.4449C201.73 25.7759 191.617 25.2574 186.172 26.554Z" fill="white"/>
<path d="M225.726 57.5992C212.287 67.4567 215.148 77.1887 225.725 88.8938C249.521 115.23 252.421 142.321 255.68 152.723C259.387 164.555 266.113 175.187 274.517 169.117C278.754 166.056 286.223 150.017 284.991 130.917C288.688 88.8938 278.214 74.4044 270.818 67.4569C250.487 48.3571 230.481 56.4942 225.726 57.5992Z" fill="white"/>
<path d="M153.113 66.5552C107.101 -16.8923 30.5707 -4.54124 0 12.0652V599H863.493C796.341 506.211 700.795 513.632 661.416 528.941C628.461 468.535 557.009 467.964 525.402 475.23C490.582 342.586 363.74 333.296 304.671 345.232C284.152 290.431 253.633 258.567 240.939 249.486C245.913 105.009 184.461 67.3335 153.113 66.5552Z" fill="white"/>
<path d="M122.815 118.874C98.4083 32.3429 30.7689 36.13 0 48.8399V599H841.712C787.266 536.124 672.483 543.232 621.897 554.645C579.552 476.088 529.091 490.868 510.317 492.425C455.246 410.251 343.412 378.262 294.912 376.446C281.77 317.928 238.85 271.654 219.033 255.831C227.168 146.266 158.277 118.874 122.815 118.874Z" fill="#E3F2FE"/>
<path d="M430.942 590.431C398.792 556.779 359.76 552.521 344.263 554.598C350.305 501.887 337.802 387.897 239.461 353.622C215.033 292.862 136.866 186.557 0.701174 246.382C0.701174 253.86 -0.875802 484.49 0.700177 599H737.47C704.059 587.782 662.086 577.188 645.275 573.293C539.369 545.25 458.259 573.034 430.942 590.431Z" fill="white"/>
<path d="M182.598 386.426C250.262 436.699 285.096 549.089 294.054 599H0V320.481C101.812 280.139 164.154 347.635 182.598 386.426Z" fill="#E3F2FE"/>
<path d="M62.2344 424.415C89.2023 411.709 148.237 385.363 152.593 381.629C161.093 356.478 181.181 324.404 232.599 303.837C246.602 297.354 273.855 282.029 285.498 270.387C301.056 254.828 359.401 231.491 385.072 231.491C389.221 231.75 398.919 234.812 395.185 246.636C397.729 246.902 400.127 247.598 402.186 248.605C403.791 267.331 407.634 296.058 409.188 305.393C414.633 305.393 417.745 299.559 417.745 292.169C417.745 284.779 412.818 253.013 409.188 236.936C406.854 204.264 423.968 198.04 434.081 202.708C436.912 217.488 435.421 212.756 437.49 221.377C435.316 208.412 432.525 178.592 465.198 180.147C469.865 216.71 470.823 221.377 479.201 252.494C483.889 269.909 482.003 291.475 480.097 301.504C519.652 270.387 532.099 257.335 550.769 252.494C560.104 250.074 578.775 252.494 567.884 274.277C565.164 280.5 525.261 317.84 507.206 338.066C493.2 347.809 470.952 354.871 406.504 387.235C404.983 388.047 403.539 388.773 402.186 389.409C391.66 396.743 378.246 404.973 363.29 414.303C324.705 437.329 264.494 463.052 238.823 474.98C234.466 475.603 119.282 537.992 62.2344 569.109V424.415Z" fill="#E9D9DE"/>
<path d="M152.593 381.629C148.237 385.363 89.2023 411.709 62.2344 424.415V569.109C119.282 537.992 234.466 475.603 238.823 474.98C264.494 463.052 324.705 437.329 363.29 414.303M148.584 396.41C154.029 370.479 170.366 328.73 232.599 303.837C246.602 297.354 273.856 282.029 285.498 270.387C301.056 254.828 359.401 231.491 385.072 231.491C389.221 231.75 398.919 234.812 395.185 246.636M363.29 414.303C377.293 401.856 399.075 375.406 409.188 356.736C416.967 338.844 416.118 334.954 411.521 315.506C410.469 311.053 410.243 311.736 409.188 305.393M363.29 414.303C378.246 404.973 391.66 396.743 402.186 389.409M373.211 312.394C368.695 306.073 367.901 289.965 369.002 278.944M373.211 312.394C373.17 313.931 366.402 321.73 373.211 312.394ZM373.211 312.394C372.66 323.381 370.555 340.356 359.862 347.863M373.211 312.394C355.631 305.548 302.225 309.542 277.719 312.394M359.401 348.179C359.556 348.076 359.709 347.97 359.862 347.863M359.862 347.863C342.853 360.415 308.058 385.519 304.946 385.519M409.188 305.393C407.634 296.058 403.791 267.331 402.186 248.605C392.646 243.937 375.81 245.954 371.069 266.497C370.133 270.554 369.418 274.774 369.002 278.944M409.188 305.393C414.633 305.393 417.745 299.559 417.745 292.169C417.745 284.779 412.818 253.013 409.188 236.936C406.854 204.264 423.968 198.04 434.081 202.708C436.912 217.488 435.421 212.756 437.49 221.377M437.49 221.377C442.232 241.141 450.808 270.293 455.863 286.723C458.197 293.732 461.464 311.168 455.863 324.841C451.454 339.327 446.959 358.213 402.186 389.409M437.49 221.377C435.316 208.412 432.525 178.592 465.198 180.147C469.865 216.71 470.823 221.377 479.201 252.494C484.646 272.72 481.222 298.547 479.201 305.393C470.488 344.6 424.262 379.037 402.186 389.409M480.097 301.504C519.652 270.387 532.099 257.335 550.769 252.494C560.104 250.074 578.775 252.494 567.884 274.277C565.164 280.5 525.261 317.84 507.206 338.066C492.892 348.024 469.969 355.181 402.186 389.409M369.002 278.944C355.948 290.872 324.861 313.639 304.946 309.282" stroke="#F5F0FF" stroke-width="2" stroke-linecap="round" stroke-linejoin="round"/>
<path d="M395.185 246.636C398.919 234.811 389.221 231.75 385.072 231.49C358.623 278.943 278.497 309.282 278.497 311.616C281.608 315.35 298.723 309.023 304.946 309.282C335.285 309.282 355.948 290.871 369.002 278.943C369.418 274.774 370.133 270.553 371.069 266.497C372.885 259.876 380.249 246.636 395.185 246.636Z" fill="#87B7EF"/>
<path d="M238.823 474.98C234.466 475.602 119.282 537.991 62.2344 569.108V534.102C106.42 511.075 180.219 472.127 211.595 455.532C251.425 446.819 302.872 422.859 323.616 411.968C380.871 377.74 406.076 333.398 411.521 315.506C413.079 322.094 414.206 326.898 414.713 331.064C433.303 327.175 441.931 317.373 458.197 293.724C457.832 286.551 457.061 290.32 455.863 286.723C469.554 279.255 477.126 260.792 479.201 252.494C484.646 272.72 481.222 298.547 479.201 305.392C478.442 308.804 477.4 312.179 476.115 315.506C479.477 316.802 492.581 315.35 518.097 299.169C534.174 286.723 567.728 262.763 573.329 266.497C550.769 293.724 526.654 319.395 507.206 338.066C493.2 347.809 470.952 354.871 406.504 387.234C404.983 388.047 403.539 388.773 402.186 389.409C391.66 396.743 378.246 404.973 363.29 414.302C324.705 437.329 264.494 463.052 238.823 474.98Z" fill="#87B7EF"/>
<path d="M368.735 278.944C362.512 287.657 335.025 302.282 322.06 308.505C345.087 308.505 365.364 310.58 372.625 311.617C369.513 307.261 368.735 288.02 368.735 278.944Z" fill="#9ED3FB"/>
<path d="M152.593 381.629C148.237 385.363 89.2023 411.709 62.2344 424.415V569.109C119.282 537.992 234.466 475.603 238.823 474.98C264.494 463.052 324.705 437.329 363.29 414.303M148.584 396.41C154.029 370.479 170.366 328.73 232.599 303.837C246.602 297.354 273.856 282.029 285.498 270.387C301.056 254.828 359.401 231.491 385.072 231.491C389.221 231.75 398.919 234.812 395.185 246.636M363.29 414.303C377.293 401.856 399.075 375.406 409.188 356.736C416.967 338.844 416.118 334.954 411.521 315.506C410.469 311.053 410.243 311.736 409.188 305.393M363.29 414.303C378.246 404.973 391.66 396.743 402.186 389.409M373.211 312.394C368.695 306.073 367.901 289.965 369.002 278.944M373.211 312.394C373.17 313.931 372.471 320.952 373.211 312.394ZM373.211 312.394C372.66 323.381 370.555 340.356 359.862 347.863M373.211 312.394C355.631 305.548 302.225 309.542 277.719 312.394M359.401 348.179C359.556 348.076 359.709 347.97 359.862 347.863M359.862 347.863C342.853 360.415 308.058 385.519 304.946 385.519M409.188 305.393C407.634 296.058 403.791 267.331 402.186 248.605C392.646 243.937 375.81 245.954 371.069 266.497C370.133 270.554 369.418 274.774 369.002 278.944M409.188 305.393C414.633 305.393 417.745 299.559 417.745 292.169C417.745 284.779 412.818 253.013 409.188 236.936C406.854 204.264 423.968 198.04 434.081 202.708C436.912 217.488 435.421 212.756 437.49 221.377M437.49 221.377C442.232 241.141 450.808 270.293 455.863 286.723C458.197 293.732 461.464 311.168 455.863 324.841C451.454 339.327 446.959 358.213 402.186 389.409M437.49 221.377C435.316 208.412 432.525 178.592 465.198 180.147C469.865 216.71 470.823 221.377 479.201 252.494C484.646 272.72 481.222 298.547 479.201 305.393C470.488 344.6 424.262 379.037 402.186 389.409M480.097 301.504C519.652 270.387 532.099 257.335 550.769 252.494C560.104 250.074 578.775 252.494 567.884 274.277C565.164 280.5 525.261 317.84 507.206 338.066C492.892 348.024 469.969 355.181 402.186 389.409M369.002 278.944C355.948 290.872 324.861 313.639 304.946 309.282" stroke="#F5F0FF" stroke-width="3" stroke-linecap="round" stroke-linejoin="round"/>
<path d="M108.131 524.987C129.913 397.218 28.2645 342.942 0 363.717V599H265.271C252.825 547.892 204.075 556.929 181.256 567.836C171.298 517.352 128.357 518.235 108.131 524.987Z" fill="white"/>
<path d="M92.5466 562.349C88.117 452.551 29.0032 451.716 0 457.954V599H188.257C158.516 548.468 111.794 553.511 92.5466 562.349Z" fill="#E3F2FE"/>
</svg>
