<svg width="1920" height="469" viewBox="0 0 1920 469" fill="none" xmlns="http://www.w3.org/2000/svg">
<path d="M480 92.2559C438.4 38.6559 382 37.2559 360 43.2559V468.256H1561V6.25604C1389.8 -23.344 1303 59.256 1281 104.256C1158.6 101.856 1112.67 192.589 1105 238.256C1072.2 230.256 1001.33 249.589 970 260.256C930.8 213.056 857.667 217.256 826 225.256C792.4 154.056 726 156.923 697 167.256C617 77.656 519 79.9226 480 92.2559Z" fill="#85C6F7"/>
<path d="M2642 92.2559C2683.6 38.6559 2740 37.2559 2762 43.2559V468.256H1561V6.25604C1732.2 -23.344 1819 59.256 1841 104.256C1963.4 101.856 2009.33 192.589 2017 238.256C2049.8 230.256 2120.67 249.589 2152 260.256C2191.2 213.056 2264.33 217.256 2296 225.256C2329.6 154.056 2396 156.923 2425 167.256C2505 77.656 2603 79.9226 2642 92.2559Z" fill="#85C6F7"/>
<path d="M698 268.256C620.4 89.8561 486.333 93.9227 429 118.256C410.667 124.256 371.2 140.856 360 159.256V469.256H1561V182.256C1531.4 143.056 1483.33 150.589 1463 159.256C1385.4 93.6559 1316.67 160.589 1292 202.256C1245.6 186.256 1195.33 226.923 1176 249.256C1036 170.056 933.667 270.256 900 330.256C860.8 303.856 819 319.256 803 330.256C768.6 281.456 718.667 268.589 698 268.256Z" fill="#9ED3FB"/>
<path d="M240 92.2559C281.6 38.6559 338 37.2559 360 43.2559V468.256H-841V6.25604C-669.8 -23.344 -583 59.256 -561 104.256C-438.6 101.856 -392.667 192.589 -385 238.256C-352.2 230.256 -281.333 249.589 -250 260.256C-210.8 213.056 -137.667 217.256 -106 225.256C-72.4 154.056 -6 156.923 23 167.256C103 77.656 201 79.9226 240 92.2559Z" fill="#85C6F7"/>
<path d="M22 268.256C99.6 89.8561 233.667 93.9227 291 118.256C309.333 124.256 348.8 140.856 360 159.256V469.256H-841V182.256C-811.4 143.056 -763.333 150.589 -743 159.256C-665.4 93.6559 -596.667 160.589 -572 202.256C-525.6 186.256 -475.333 226.923 -456 249.256C-316 170.056 -213.667 270.256 -180 330.256C-140.8 303.856 -99 319.256 -83 330.256C-48.6 281.456 1.33334 268.589 22 268.256Z" fill="#9ED3FB"/>
<path d="M2424 268.256C2501.6 89.8561 2635.67 93.9227 2693 118.256C2711.33 124.256 2750.8 140.856 2762 159.256V469.256H1561V182.256C1590.6 143.056 1638.67 150.589 1659 159.256C1736.6 93.6559 1805.33 160.589 1830 202.256C1876.4 186.256 1926.67 226.923 1946 249.256C2086 170.056 2188.33 270.256 2222 330.256C2261.2 303.856 2303 319.256 2319 330.256C2353.4 281.456 2403.33 268.589 2424 268.256Z" fill="#9ED3FB"/>
</svg>
