<svg width="83" height="36" viewBox="0 0 83 36" fill="none" xmlns="http://www.w3.org/2000/svg">
<path d="M15.6146 11.5564C-5.4467 8.05623 -2.15625 22.0564 7.71654 26.0564C16.9325 29.7903 22.4154 26.0564 24.1699 24.5564C32.5945 17.7564 24.1699 12.9782 15.6146 11.5564Z" fill="white"/>
<path d="M18.2474 3.55642C-2.81389 0.0562265 0.476564 14.0564 10.3494 18.0564C19.5653 21.7903 25.0482 18.0564 26.8027 16.5564C35.2273 9.75637 26.8027 4.97822 18.2474 3.55642Z" fill="white"/>
<path d="M36.2027 13.5676C5.12672 9.99709 9.98178 24.2786 24.5491 28.3589C38.1473 32.1678 46.2373 28.3589 48.826 26.8287C61.2565 19.8921 48.826 15.018 36.2027 13.5676Z" fill="white"/>
<path d="M45.4171 0.567595C14.3411 -3.00291 19.1961 11.2786 33.7634 15.3589C47.3617 19.1678 55.4516 15.3589 58.0404 13.8287C70.4709 6.8921 58.0404 2.01796 45.4171 0.567595Z" fill="white"/>
<path d="M70.2358 2.75823C51.2884 -3.71424 50.7594 10.7622 59.0294 16.1576C66.7492 21.194 72.8865 18.2298 74.9295 16.9758C84.6353 11.3575 77.9323 5.3874 70.2358 2.75823Z" fill="white"/>
<path d="M57.8193 13.2314C32.7625 22.1344 46.9997 32.006 60.5557 29.8076C73.2098 27.7554 76.1687 21.5491 76.8813 19.3076C80.6124 8.88165 67.9976 9.61493 57.8193 13.2314Z" fill="white"/>
<path d="M15.1385 12.2806C16.9985 12.2806 19.0745 13.0966 19.0745 16.0006C19.0745 18.9046 16.9985 19.7206 15.1385 19.7206C14.0225 19.7206 12.9185 19.3846 12.1625 18.6166V19.6006H9.28248V10.0006H12.1625V13.3846C12.9185 12.6166 14.0225 12.2806 15.1385 12.2806ZM14.1785 17.3206C15.4625 17.3206 16.1945 17.0566 16.1945 16.0006C16.1945 14.9446 15.4625 14.6806 14.1785 14.6806C12.8945 14.6806 12.1625 14.9446 12.1625 16.0006C12.1625 17.0566 12.8945 17.3206 14.1785 17.3206ZM25.562 12.4006H28.682L24.59 22.6006H21.47L22.67 19.6006H21.35L18.35 12.4006H21.47L23.558 17.4046L25.562 12.4006ZM46.709 11.2006V19.6006H43.589V15.6046L41.297 19.6006H39.257L36.965 15.6046V19.6006H33.845V11.2006H37.685L40.277 16.0006L42.869 11.2006H46.709ZM52.2354 19.7206C48.5394 19.7206 46.9554 18.3166 46.9554 15.3886C46.9554 12.4726 48.5394 11.0806 52.2354 11.0806C55.9194 11.0806 57.5154 12.4846 57.5154 15.3886C57.5154 18.3046 55.9194 19.7206 52.2354 19.7206ZM52.2354 17.0806C54.0714 17.0806 54.3954 16.2766 54.3954 15.3886C54.3954 14.5126 54.0834 13.7206 52.2354 13.7206C50.3874 13.7206 50.0754 14.5006 50.0754 15.3886C50.0754 16.2886 50.3994 17.0806 52.2354 17.0806ZM70.7441 11.2006V19.6006H67.6241V15.6046L65.3321 19.6006H63.2921L61.0001 15.6046V19.6006H57.8801V11.2006H61.7201L64.3121 16.0006L66.9041 11.2006H70.7441Z" fill="#6FB5F9"/>
</svg>
