<svg width="669" height="116" viewBox="0 0 669 116" fill="none" xmlns="http://www.w3.org/2000/svg">
<path d="M68.4675 75.44V53.04H141.108V114H117.108L114.068 97.84C104.628 108.88 89.9075 115.6 66.3875 115.6C25.1075 115.6 0.7875 96.88 0.7875 57.84C0.7875 18.96 25.1075 0.399994 71.1875 0.399994C115.988 0.399994 139.348 16.08 141.108 46.64H98.5475C96.9475 40.88 88.7875 35.6 71.1875 35.6C46.5475 35.6 42.3875 46 42.3875 59.44C42.3875 73.04 46.7075 85.2 71.1875 85.2C87.1875 85.2 96.9475 82.96 98.5475 75.44H68.4675ZM187.581 1.99999V114H145.981V1.99999H187.581ZM365.47 1.99999V114H323.87V60.72L293.31 114H266.11L235.55 60.72V114H193.95V1.99999H245.15L279.71 66L314.27 1.99999H365.47ZM543.439 1.99999V114H501.839V60.72L471.279 114H444.079L413.519 60.72V114H371.919V1.99999H423.119L457.679 66L492.239 1.99999H543.439ZM668.288 34H591.488V44.4H668.288V71.6H591.488V82H668.288V114H549.888V1.99999H668.288V34Z" fill="white"/>
</svg>
