<svg width="40" height="40" viewBox="0 0 40 40" fill="none" xmlns="http://www.w3.org/2000/svg">
<g clip-path="url(#clip0_1405_1724)">
<rect width="40" height="40" rx="20" fill="#6FB5F9"/>
<path d="M4.89211 7.88702C-3.16145 6.54118 -5.72495 9.51325 -6 11.1675L-6 39L43.9222 39C44.4503 34.8279 42.1618 22.1025 40.9516 21.2614C40.7536 13.9265 34.8729 12.3732 31.9573 12.5134C31.2312 6.72622 26.1537 5.78413 23.7058 6.03648C19.1509 5.9019 16.6919 9.4011 16.0318 11.1675C12.9952 5.64955 7.34008 6.68136 4.89211 7.88702Z" fill="#9ED3FB"/>
<path d="M26.4561 21.2917C24.9204 21.0659 25.4397 19.9368 25.9479 19.5981C26.3996 19.2028 28.1498 19.6545 28.2627 20.4449C28.3191 21.4046 27.1524 21.4046 26.4561 21.2917Z" fill="white"/>
<path d="M-3.20475 25.1786C-5.41609 22.7219 -8.65631 22.8333 -10 23.1961L-10 41L32 41C31.9386 36.8328 28.4424 34.7026 26.702 34.1583C24.7364 22.994 16.3364 23.1313 12.3821 24.5956C9.55649 22.9784 7.00731 24.3105 6.08592 25.1786C2.52322 22.3176 -1.59232 23.9865 -3.20475 25.1786Z" fill="#E3F2FE"/>
<path d="M-4.20021 39.2446C-7.45207 26.6889 -18.0883 28.518 -23 31.0021L-23 34.4459C-18.9164 32.9216 -9.5861 32.6732 -4.93414 43.874L21.0355 43.874C19.229 40.1254 13.2823 40.6184 10.5348 41.3335C6.51511 36.1847 -0.963408 37.7956 -4.20021 39.2446Z" fill="white"/>
<path d="M-6.31249 -3.9275C-3.91809 -2.26506 1.19906 1.4459 1.72823 1.63224C4.27362 1.12238 7.97164 1.25532 12.2271 4.60387C13.4606 5.47267 16.0908 7.03125 17.6459 7.44793C19.724 8.00477 24.5526 11.8043 25.8077 13.9782C25.9886 14.3422 26.2035 15.3131 25.0196 15.575C25.1215 15.8034 25.1798 16.0405 25.1952 16.2641C23.688 17.3155 21.4432 19.0454 20.7287 19.6333C20.9949 20.0945 21.6411 20.0727 22.2669 19.7114C22.8927 19.3501 25.3417 17.3799 26.5256 16.2865C29.1782 14.4916 30.5419 15.6365 30.6411 16.7211C29.5279 17.6834 29.8557 17.3258 29.2268 17.9224C30.2184 17.1045 32.6072 15.4103 34.0728 18.2531C31.2048 20.4359 30.8564 20.7451 28.6311 22.9758C27.3856 24.2242 25.4672 25.1189 24.5248 25.4478C29.0936 27.276 30.8073 27.6919 32.13 29.0362C32.7914 29.7084 33.4992 31.4077 31.1222 31.5504C30.4623 31.6244 25.3495 30.071 22.754 29.5309C21.2443 28.8212 19.5586 27.2825 13.6672 23.4073C13.5241 23.3183 13.392 23.2315 13.272 23.148C12.1363 22.6152 10.7836 21.8817 9.26239 21.0713C5.42608 18.9298 0.304175 15.0887 -1.96095 13.498C-2.22663 13.1595 -13.1411 6.45599 -18.5651 3.14652L-6.31249 -3.9275Z" fill="#E9D9DE"/>
<path d="M1.72823 1.63224C1.19906 1.4459 -3.91809 -2.26507 -6.31249 -3.9275L-18.5651 3.14652C-13.1411 6.45599 -2.22663 13.1595 -1.96095 13.498C0.304176 15.0887 5.42608 18.9298 9.26239 21.0713M0.280573 2.01535C2.7426 1.20872 7.07655 0.550987 12.2271 4.60387C13.4606 5.47267 16.0908 7.03125 17.6459 7.44793C19.724 8.00477 24.5526 11.8043 25.8077 13.9782C25.9886 14.3422 26.2035 15.3131 25.0196 15.575M9.26239 21.0713C11.0009 21.6486 14.3056 22.1999 16.381 22.1435C18.2764 21.9275 18.5643 21.6655 19.9864 20.3254C20.3121 20.0186 20.2432 20.0329 20.7287 19.6333M9.26239 21.0713C10.7836 21.8817 12.1363 22.6152 13.272 23.148M18.3769 16.9291C18.6915 16.2377 20.0166 15.3829 21.0037 14.9373M18.3769 16.9291C18.2448 17.0008 17.2535 16.809 18.3769 16.9291ZM18.3769 16.9291C17.4196 17.4196 15.8793 18.0713 14.7208 17.5328M18.3769 16.9291C18.0972 15.1058 15.148 10.7786 13.7084 8.84292M14.6715 17.5092C14.6879 17.5173 14.7043 17.5252 14.7208 17.5328M14.7208 17.5328C12.8264 16.7062 8.99945 14.9871 8.84732 14.7236M20.7287 19.6333C21.4432 19.0454 23.688 17.3155 25.1952 16.2641C25.124 15.2281 24.1301 13.901 22.1588 14.5039C21.7695 14.623 21.3772 14.7687 21.0037 14.9373M20.7287 19.6333C20.9949 20.0945 21.6411 20.0727 22.2669 19.7114C22.8927 19.3501 25.3417 17.3799 26.5256 16.2865C29.1782 14.4916 30.5419 15.6365 30.6411 16.7211C29.5279 17.6834 29.8557 17.3258 29.2268 17.9224M29.2268 17.9224C27.7851 19.2903 25.7357 21.4417 24.5916 22.673C24.1122 23.2133 22.7954 24.3424 21.3638 24.5366C19.9216 24.8715 18.1025 25.4142 13.272 23.148M29.2268 17.9224C30.2184 17.1045 32.6072 15.4103 34.0728 18.2531C31.2048 20.4359 30.8564 20.7451 28.6311 22.9758C27.1846 24.4258 24.8302 25.3985 24.1516 25.562C20.4056 26.7411 15.2296 24.5103 13.272 23.148M24.5248 25.4478C29.0936 27.276 30.8073 27.6919 32.13 29.0362C32.7914 29.7084 33.4992 31.4077 31.1222 31.5504C30.4623 31.6244 25.3495 30.071 22.754 29.5309C21.2111 28.8056 19.4843 27.2144 13.272 23.148M21.0037 14.9373C19.3555 14.4151 15.9077 12.8957 15.303 10.9964" stroke="#F5F0FF" stroke-width="0.304259" stroke-linecap="round" stroke-linejoin="round"/>
<path d="M25.0198 15.5752C26.2036 15.3133 25.9887 14.3424 25.8079 13.9783C20.4965 14.0586 14.01 8.75685 13.8124 8.87094C13.6483 9.31699 15.0208 10.4569 15.3031 10.9965C16.7864 13.5656 19.3556 14.4152 21.0039 14.9375C21.3773 14.7689 21.7697 14.6231 22.1589 14.5041C22.8083 14.3341 24.2896 14.3104 25.0198 15.5752Z" fill="#87B7EF"/>
<path d="M-1.96081 13.4982C-2.22649 13.1597 -13.1409 6.45615 -18.5649 3.14668L-15.6006 1.43522C-11.4905 4.05111 -4.58437 8.39621 -1.64509 10.2418C1.03996 13.1886 5.58409 16.3736 7.52052 17.5978C13.2182 20.7727 18.2052 20.7392 19.9866 20.3256C19.5048 20.7796 19.1532 21.1098 18.8251 21.3565C20.0634 22.7405 21.3152 22.9919 24.113 23.2131C24.7025 22.8316 24.3457 22.9505 24.5917 22.6732C25.8935 23.4675 27.8271 23.206 28.6312 22.976C27.1847 24.4259 24.8303 25.3987 24.1518 25.5622C23.8258 25.6648 23.4891 25.7415 23.1445 25.7953C23.1991 26.1434 23.9627 27.182 26.5804 28.5516C28.4203 29.3045 32.0897 30.9745 32.0474 31.6313C28.6388 31.0521 25.286 30.2651 22.7542 29.531C21.2444 28.8214 19.5587 27.2827 13.6673 23.4075C13.5242 23.3184 13.3921 23.2317 13.2721 23.1482C12.1364 22.6154 10.7837 21.8819 9.26253 21.0715C5.42623 18.9299 0.304319 15.0889 -1.96081 13.4982Z" fill="#87B7EF"/>
<path d="M20.9909 14.9146C19.9489 14.8136 17.3666 13.201 16.2058 12.4074C17.3315 14.3573 18.1472 16.1758 18.4144 16.8413C18.6311 16.3649 20.2224 15.3583 20.9909 14.9146Z" fill="#9ED3FB"/>
<path d="M1.72823 1.63224C1.19906 1.4459 -3.91809 -2.26507 -6.31249 -3.9275L-18.5651 3.14652C-13.1411 6.45599 -2.22663 13.1595 -1.96095 13.498C0.304176 15.0887 5.42608 18.9298 9.26239 21.0713M0.280573 2.01535C2.7426 1.20872 7.07655 0.550987 12.2271 4.60387C13.4606 5.47267 16.0908 7.03125 17.6459 7.44793C19.724 8.00477 24.5526 11.8043 25.8077 13.9782C25.9886 14.3422 26.2035 15.3131 25.0196 15.575M9.26239 21.0713C11.0009 21.6486 14.3056 22.1999 16.381 22.1435C18.2764 21.9275 18.5643 21.6655 19.9864 20.3254C20.3121 20.0186 20.2432 20.0329 20.7287 19.6333M9.26239 21.0713C10.7836 21.8817 12.1363 22.6152 13.272 23.148M18.3769 16.9291C18.6915 16.2377 20.0166 15.3829 21.0037 14.9373M18.3769 16.9291C18.2448 17.0008 17.6161 17.2849 18.3769 16.9291ZM18.3769 16.9291C17.4196 17.4196 15.8793 18.0713 14.7208 17.5328M18.3769 16.9291C18.0972 15.1058 15.148 10.7786 13.7084 8.84292M14.6715 17.5092C14.6879 17.5173 14.7043 17.5252 14.7208 17.5328M14.7208 17.5328C12.8264 16.7062 8.99945 14.9871 8.84732 14.7236M20.7287 19.6333C21.4432 19.0454 23.688 17.3155 25.1952 16.2641C25.124 15.2281 24.1301 13.901 22.1588 14.5039C21.7695 14.623 21.3772 14.7687 21.0037 14.9373M20.7287 19.6333C20.9949 20.0945 21.6411 20.0727 22.2669 19.7114C22.8927 19.3501 25.3417 17.3799 26.5256 16.2865C29.1782 14.4916 30.5419 15.6365 30.6411 16.7211C29.5279 17.6834 29.8557 17.3258 29.2268 17.9224M29.2268 17.9224C27.7851 19.2903 25.7357 21.4417 24.5916 22.673C24.1122 23.2133 22.7954 24.3424 21.3638 24.5366C19.9216 24.8715 18.1025 25.4142 13.272 23.148M29.2268 17.9224C30.2184 17.1045 32.6072 15.4103 34.0728 18.2531C31.2048 20.4359 30.8564 20.7451 28.6311 22.9758C27.1846 24.4258 24.8302 25.3985 24.1516 25.562C20.4056 26.7411 15.2296 24.5103 13.272 23.148M24.5248 25.4478C29.0936 27.276 30.8073 27.6919 32.13 29.0362C32.7914 29.7084 33.4992 31.4077 31.1222 31.5504C30.4623 31.6244 25.3495 30.071 22.754 29.5309C21.2111 28.8056 19.4843 27.2144 13.272 23.148M21.0037 14.9373C19.3555 14.4151 15.9077 12.8957 15.303 10.9964" stroke="#F5F0FF" stroke-width="0.456389" stroke-linecap="round" stroke-linejoin="round"/>
</g>
<rect x="1" y="1" width="38" height="38" rx="19" stroke="#6FB5F9" stroke-width="2"/>
<defs>
<clipPath id="clip0_1405_1724">
<rect width="40" height="40" rx="20" fill="white"/>
</clipPath>
</defs>
</svg>
