<svg width="107" height="20" viewBox="0 0 107 20" fill="none" xmlns="http://www.w3.org/2000/svg">
<path d="M10.854 12.8545V9.2845H22.431V19H18.606L18.1215 16.4245C16.617 18.184 14.271 19.255 10.5225 19.255C3.9435 19.255 0.0675 16.2715 0.0675 10.0495C0.0675 3.853 3.9435 0.894999 11.2875 0.894999C18.4275 0.894999 22.1505 3.394 22.431 8.2645H15.648C15.393 7.3465 14.0925 6.505 11.2875 6.505C7.3605 6.505 6.6975 8.1625 6.6975 10.3045C6.6975 12.472 7.386 14.41 11.2875 14.41C13.8375 14.41 15.393 14.053 15.648 12.8545H10.854ZM29.8378 1.15V19H23.2078V1.15H29.8378ZM58.1888 1.15V19H51.5588V10.5085L46.6883 19H42.3533L37.4828 10.5085V19H30.8528V1.15H39.0128L44.5208 11.35L50.0288 1.15H58.1888ZM86.5525 1.15V19H79.9225V10.5085L75.052 19H70.717L65.8465 10.5085V19H59.2165V1.15H67.3765L72.8845 11.35L78.3925 1.15H86.5525ZM106.45 6.25H94.2103V7.9075H106.45V12.2425H94.2103V13.9H106.45V19H87.5803V1.15H106.45V6.25Z" fill="#09121A"/>
</svg>
