<svg width="286" height="38" viewBox="0 0 286 38" fill="none" xmlns="http://www.w3.org/2000/svg">
<path d="M27.6 0.999998H38V29H27.6V19.4H11.2V29H0.8V0.999998H11.2V10.6H27.6V0.999998ZM69.1891 9H49.9891V11.6H69.1891V18.4H49.9891V21H69.1891V29H39.5891V0.999998H69.1891V9ZM84.2103 19.8L69.9703 0.999998H81.9703L89.4103 11.4L96.8503 0.999998H108.85L94.6103 19.8V29H84.2103V19.8ZM152.873 29L150.953 23.96H139.033L137.113 29H125.673L137.273 0.999998H152.713L164.313 29H152.873ZM141.753 16.76H148.233L144.993 8.2L141.753 16.76ZM190.816 0.999998H201.216V29H187.616L175.536 12.48V29H165.136V0.999998H178.736L190.816 17.52V0.999998ZM219.641 29.4C207.321 29.4 202.041 24.72 202.041 14.96C202.041 5.24 207.321 0.599998 219.641 0.599998C231.921 0.599998 237.241 5.28 237.241 14.96C237.241 24.68 231.921 29.4 219.641 29.4ZM219.641 20.6C225.761 20.6 226.841 17.92 226.841 14.96C226.841 12.04 225.801 9.4 219.641 9.4C213.481 9.4 212.441 12 212.441 14.96C212.441 17.96 213.521 20.6 219.641 20.6ZM264.136 0.999998H274.536V29H260.936L248.856 12.48V29H238.456V0.999998H252.056L264.136 17.52V0.999998ZM276.152 21.8H285.752V29L281.232 37.8H276.952L279.672 29H276.152V21.8Z" fill="#2A5A7E"/>
</svg>
