<svg width="591" height="175" viewBox="0 0 591 175" fill="none" xmlns="http://www.w3.org/2000/svg">
<path d="M73.8413 1.2C84.6573 1.2 94.8333 8.368 94.8333 23.6C94.8333 38.832 84.6573 46 73.8413 46H40.5613V1.2H73.8413ZM68.7213 31.92C72.3053 31.92 78.1933 31.92 78.1933 23.6C78.1933 15.28 72.3053 15.28 68.7213 15.28H57.2013V31.92H68.7213ZM144.109 14H113.389V18.16H144.109V29.04H113.389V33.2H144.109V46H96.7488V1.2H144.109V14ZM193.359 15.28H162.639V20.08H189.519V34.16H162.639V46H145.999V1.2H193.359V15.28ZM211.889 1.2V46H195.249V1.2H211.889ZM262.205 31.28L239.421 1.2H258.621L270.525 17.84L282.429 1.2H301.629L278.845 31.28V46H262.205V31.28ZM319.576 1.2V46H302.936V1.2H319.576ZM369.484 14H338.764V18.16H369.484V29.04H338.764V33.2H369.484V46H322.124V1.2H369.484V14ZM388.014 31.92H417.454V46H371.374V1.2H388.014V31.92ZM452.654 1.2C463.47 1.2 473.646 8.368 473.646 23.6C473.646 38.832 463.47 46 452.654 46H419.374V1.2H452.654ZM447.534 31.92C451.118 31.92 457.006 31.92 457.006 23.6C457.006 15.28 451.118 15.28 447.534 15.28H436.014V31.92H447.534ZM474.921 30.192H491.561C491.561 32.368 493.609 33.84 504.169 33.84C514.025 33.84 515.497 33.2 515.497 31.536C515.497 29.616 514.025 29.36 503.529 29.04C483.305 28.4 475.561 25.072 475.561 14.64C475.561 4.784 485.225 0.559998 502.889 0.559998C520.361 0.559998 530.217 4.784 530.217 16.24H513.577C513.577 13.872 509.737 13.36 501.609 13.36C493.801 13.36 492.201 13.744 492.201 15.472C492.201 17.2 493.801 17.136 503.529 17.52C521.193 18.224 532.137 19.44 532.137 31.152C532.137 43.504 521.897 46.64 503.529 46.64C485.161 46.64 474.921 43.504 474.921 30.192ZM534.061 34.48H549.421V46L542.189 60.08H535.341L539.693 46H534.061V34.48ZM33.6538 65.2C44.4698 65.2 54.6458 72.368 54.6458 87.6C54.6458 102.832 44.4698 110 33.6538 110H0.37375V65.2H33.6538ZM28.5338 95.92C32.1178 95.92 38.0058 95.92 38.0058 87.6C38.0058 79.28 32.1178 79.28 28.5338 79.28H17.0138V95.92H28.5338ZM103.921 78H73.2013V82.16H103.921V93.04H73.2013V97.2H103.921V110H56.5613V65.2H103.921V78ZM105.171 94.192H121.811C121.811 96.368 123.859 97.84 134.419 97.84C144.275 97.84 145.747 97.2 145.747 95.536C145.747 93.616 144.275 93.36 133.779 93.04C113.555 92.4 105.811 89.072 105.811 78.64C105.811 68.784 115.475 64.56 133.139 64.56C150.611 64.56 160.467 68.784 160.467 80.24H143.827C143.827 77.872 139.987 77.36 131.859 77.36C124.051 77.36 122.451 77.744 122.451 79.472C122.451 81.2 124.051 81.136 133.779 81.52C151.443 82.224 162.387 83.44 162.387 95.152C162.387 107.504 152.147 110.64 133.779 110.64C115.411 110.64 105.171 107.504 105.171 94.192ZM180.951 65.2V110H164.311V65.2H180.951ZM209.306 94.576V85.616H238.362V110H228.762L227.546 103.536C223.77 107.952 217.882 110.64 208.474 110.64C191.962 110.64 182.234 103.152 182.234 87.536C182.234 71.984 191.962 64.56 210.394 64.56C228.314 64.56 237.658 70.832 238.362 83.056H221.338C220.698 80.752 217.434 78.64 210.394 78.64C200.538 78.64 198.874 82.8 198.874 88.176C198.874 93.616 200.602 98.48 210.394 98.48C216.794 98.48 220.698 97.584 221.338 94.576H209.306ZM281.399 65.2H298.039V110H276.279L256.951 83.568V110H240.311V65.2H262.071L281.399 91.632V65.2ZM347.984 78H317.264V82.16H347.984V93.04H317.264V97.2H347.984V110H300.624V65.2H347.984V78ZM383.154 65.2C393.97 65.2 404.146 72.368 404.146 87.6C404.146 102.832 393.97 110 383.154 110H349.874V65.2H383.154ZM378.034 95.92C381.618 95.92 387.506 95.92 387.506 87.6C387.506 79.28 381.618 79.28 378.034 79.28H366.514V95.92H378.034ZM479.046 79.28H448.326V84.08H475.206V98.16H448.326V110H431.686V65.2H479.046V79.28ZM507.831 110.64C488.119 110.64 479.671 103.152 479.671 87.536C479.671 71.984 488.119 64.56 507.831 64.56C527.479 64.56 535.991 72.048 535.991 87.536C535.991 103.088 527.479 110.64 507.831 110.64ZM507.831 96.56C517.623 96.56 519.351 92.272 519.351 87.536C519.351 82.864 517.687 78.64 507.831 78.64C497.975 78.64 496.311 82.8 496.311 87.536C496.311 92.336 498.039 96.56 507.831 96.56ZM590.288 82.352C590.288 88.88 587.28 94.256 582.352 97.136L590.288 110H570.576L564.368 99.504H554.576V110H537.936V65.2H573.136C583.312 65.2 590.288 72.368 590.288 82.352ZM554.576 79.28V85.424H569.936C571.6 85.424 573.648 85.424 573.648 82.352C573.648 79.28 571.6 79.28 569.936 79.28H554.576ZM127.078 142H96.3575V146.16H127.078V157.04H96.3575V161.2H127.078V174H79.7175V129.2H127.078V142ZM171.848 129.2H190.152L171.592 174H146.888L128.328 129.2H146.632L159.24 162.48L171.848 129.2ZM238.828 142H208.108V146.16H238.828V157.04H208.108V161.2H238.828V174H191.468V129.2H238.828V142ZM293.07 146.352C293.07 152.88 290.062 158.256 285.134 161.136L293.07 174H273.358L267.15 163.504H257.358V174H240.718V129.2H275.918C286.094 129.2 293.07 136.368 293.07 146.352ZM257.358 143.28V149.424H272.718C274.382 149.424 276.43 149.424 276.43 146.352C276.43 143.28 274.382 143.28 272.718 143.28H257.358ZM311.362 159.28L288.578 129.2H307.778L319.682 145.84L331.586 129.2H350.786L328.002 159.28V174H311.362V159.28ZM373.175 174.64C353.463 174.64 345.015 167.152 345.015 151.536C345.015 135.984 353.463 128.56 373.175 128.56C392.823 128.56 401.335 136.048 401.335 151.536C401.335 167.088 392.823 174.64 373.175 174.64ZM373.175 160.56C382.967 160.56 384.695 156.272 384.695 151.536C384.695 146.864 383.031 142.64 373.175 142.64C363.319 142.64 361.655 146.8 361.655 151.536C361.655 156.336 363.383 160.56 373.175 160.56ZM444.368 129.2H461.008V174H439.248L419.92 147.568V174H403.28V129.2H425.04L444.368 155.632V129.2ZM510.953 142H480.233V146.16H510.953V157.04H480.233V161.2H510.953V174H463.593V129.2H510.953V142Z" fill="white"/>
</svg>
