<svg width="634" height="175" viewBox="0 0 634 175" fill="none" xmlns="http://www.w3.org/2000/svg">
<path d="M55.4613 1.2V15.28H36.2613V46H19.6213V15.28H0.42125V1.2H55.4613ZM100.254 1.2H116.894V46H100.254V30.64H74.0138V46H57.3738V1.2H74.0138V16.56H100.254V1.2ZM166.796 14H136.076V18.16H166.796V29.04H136.076V33.2H166.796V46H119.436V1.2H166.796V14ZM241.671 14H210.951V18.16H241.671V29.04H210.951V33.2H241.671V46H194.311V1.2H241.671V14ZM286.441 46L283.369 37.936H264.297L261.225 46H242.921L261.481 1.2H286.185L304.745 46H286.441ZM268.649 26.416H279.017L273.833 12.72L268.649 26.416ZM301.546 30.192H318.186C318.186 32.368 320.234 33.84 330.794 33.84C340.65 33.84 342.122 33.2 342.122 31.536C342.122 29.616 340.65 29.36 330.154 29.04C309.93 28.4 302.186 25.072 302.186 14.64C302.186 4.784 311.85 0.559998 329.514 0.559998C346.986 0.559998 356.842 4.784 356.842 16.24H340.202C340.202 13.872 336.362 13.36 328.234 13.36C320.426 13.36 318.826 13.744 318.826 15.472C318.826 17.2 320.426 17.136 330.154 17.52C347.818 18.224 358.762 19.44 358.762 31.152C358.762 43.504 348.522 46.64 330.154 46.64C311.786 46.64 301.546 43.504 301.546 30.192ZM376.455 31.28L353.671 1.2H372.871L384.775 17.84L396.679 1.2H415.879L393.095 31.28V46H376.455V31.28ZM518.508 1.2H536.364L521.644 46H496.94L489.58 20.208L482.22 46H457.516L442.796 1.2H460.652L469.932 32.816L479.66 1.2H499.5L509.228 32.816L518.508 1.2ZM567.754 46L564.682 37.936H545.61L542.538 46H524.234L542.794 1.2H567.498L586.058 46H567.754ZM549.962 26.416H560.33L555.146 12.72L549.962 26.416ZM594.143 31.28L571.359 1.2H590.559L602.463 17.84L614.367 1.2H633.567L610.783 31.28V46H594.143V31.28ZM190.055 65.2V79.28H170.855V110H154.215V79.28H135.015V65.2H190.055ZM218.863 110.64C199.151 110.64 190.703 103.152 190.703 87.536C190.703 71.984 199.151 64.56 218.863 64.56C238.511 64.56 247.023 72.048 247.023 87.536C247.023 103.088 238.511 110.64 218.863 110.64ZM218.863 96.56C228.655 96.56 230.383 92.272 230.383 87.536C230.383 82.864 228.719 78.64 218.863 78.64C209.007 78.64 207.343 82.8 207.343 87.536C207.343 92.336 209.071 96.56 218.863 96.56ZM321.953 78H291.233V82.16H321.953V93.04H291.233V97.2H321.953V110H274.593V65.2H321.953V78ZM366.723 110L363.651 101.936H344.579L341.507 110H323.203L341.763 65.2H366.467L385.027 110H366.723ZM348.931 90.416H359.299L354.115 76.72L348.931 90.416ZM438.695 82.352C438.695 88.88 435.687 94.256 430.759 97.136L438.695 110H418.983L412.775 99.504H402.983V110H386.343V65.2H421.543C431.719 65.2 438.695 72.368 438.695 82.352ZM402.983 79.28V85.424H418.343C420.007 85.424 422.055 85.424 422.055 82.352C422.055 79.28 420.007 79.28 418.343 79.28H402.983ZM481.681 65.2H498.321V110H476.561L457.233 83.568V110H440.593V65.2H462.353L481.681 91.632V65.2ZM18.89 151.536C18.89 135.984 27.338 128.56 47.05 128.56C64.97 128.56 74.314 134.832 75.018 148.976H57.994C57.354 144.752 54.09 142.64 47.05 142.64C37.194 142.64 35.53 146.8 35.53 151.536C35.53 156.336 37.258 160.56 47.05 160.56C54.09 160.56 57.354 158.384 57.994 154.096H75.018C74.314 168.304 65.034 174.64 47.05 174.64C27.338 174.64 18.89 167.152 18.89 151.536ZM129.32 146.352C129.32 152.88 126.312 158.256 121.384 161.136L129.32 174H109.608L103.4 163.504H93.6075V174H76.9675V129.2H112.168C122.344 129.2 129.32 136.368 129.32 146.352ZM93.6075 143.28V149.424H108.968C110.632 149.424 112.68 149.424 112.68 146.352C112.68 143.28 110.632 143.28 108.968 143.28H93.6075ZM147.612 159.28L124.828 129.2H144.028L155.932 145.84L167.836 129.2H187.036L164.252 159.28V174H147.612V159.28ZM223.543 129.2C233.719 129.2 240.695 136.368 240.695 146.352C240.695 156.336 233.719 163.504 223.543 163.504H204.983V174H188.343V129.2H223.543ZM220.343 149.424C222.007 149.424 224.055 149.424 224.055 146.352C224.055 143.28 222.007 143.28 220.343 143.28H204.983V149.424H220.343ZM296.993 129.2V143.28H277.793V174H261.153V143.28H241.953V129.2H296.993ZM325.8 174.64C306.088 174.64 297.64 167.152 297.64 151.536C297.64 135.984 306.088 128.56 325.8 128.56C345.448 128.56 353.96 136.048 353.96 151.536C353.96 167.088 345.448 174.64 325.8 174.64ZM325.8 160.56C335.592 160.56 337.32 156.272 337.32 151.536C337.32 146.864 335.656 142.64 325.8 142.64C315.944 142.64 314.28 146.8 314.28 151.536C314.28 156.336 316.008 160.56 325.8 160.56ZM403.674 159.28L380.89 129.2H400.09L411.994 145.84L423.898 129.2H443.098L420.314 159.28V174H403.674V159.28ZM461.045 129.2V174H444.405V129.2H461.045ZM510.953 142H480.233V146.16H510.953V157.04H480.233V161.2H510.953V174H463.593V129.2H510.953V142ZM529.483 159.92H558.923V174H512.843V129.2H529.483V159.92ZM594.123 129.2C604.939 129.2 615.115 136.368 615.115 151.6C615.115 166.832 604.939 174 594.123 174H560.843V129.2H594.123ZM589.003 159.92C592.587 159.92 598.475 159.92 598.475 151.6C598.475 143.28 592.587 143.28 589.003 143.28H577.483V159.92H589.003Z" fill="white"/>
</svg>
