<svg width="618" height="279" viewBox="0 0 618 279" fill="none" xmlns="http://www.w3.org/2000/svg">
<path d="M134.626 255.994C35.0845 272.313 3.39966 236.276 0 216.218V0H617.038C623.565 50.5869 595.28 83.6316 580.322 93.8306C577.874 182.766 505.189 201.6 469.153 199.9C460.178 270.069 397.42 281.492 367.163 278.432C310.865 280.064 280.472 237.636 272.313 216.218C234.78 283.124 164.883 270.613 134.626 255.994Z" fill="#9ED3FB"/>
<path d="M497.71 169.813C480.372 172.363 482.92 193.781 488.021 198.88C494.14 205.509 505.359 201.012 512.499 197.35C531.876 187.413 528.053 178.482 527.288 176.952C522.698 167.773 504.849 168.763 497.71 169.813Z" fill="white"/>
<path d="M446.716 203.98C432.845 206.019 437.536 216.219 442.126 219.278C446.206 222.848 462.015 218.768 463.035 211.629C463.544 202.96 453.005 202.96 446.716 203.98Z" fill="white"/>
<path d="M90.2609 207.549C60.8879 239.778 17.8482 238.316 0 233.557V0H557.884C557.068 54.6665 510.629 82.6117 487.511 89.751C461.402 236.208 349.825 234.406 297.3 215.198C259.768 236.412 225.907 218.938 213.669 207.549C166.345 245.081 111.679 223.188 90.2609 207.549Z" fill="white"/>
<path d="M75.4724 174.912C57.1143 218.564 17.5082 204.999 0 192.761V0H509.949C497.71 49.363 439.916 51.8448 412.549 46.9153C418.158 59.664 417.609 71.9028 415.098 80.062C394.073 148.395 291.181 159.614 216.728 124.937C221.828 159.104 193.951 163.694 179.502 161.654C140.746 211.833 94.0005 191.401 75.4724 174.912Z" fill="#E3F2FE"/>
<path d="M169.813 41.8158C140.44 155.228 44.3655 138.706 0 116.268V85.1614C36.8863 98.9301 121.164 101.174 163.184 0H397.76C381.442 33.8606 327.727 29.407 302.91 22.9477C266.601 69.455 199.05 54.9045 169.813 41.8158Z" fill="white"/>
</svg>
