<svg width="956" height="460" viewBox="0 0 956 460" fill="none" xmlns="http://www.w3.org/2000/svg">
<path d="M194.672 272.813C113.278 266.784 83.1348 119.073 133.627 0H955.08V254.726C935.486 281.856 873.689 280.349 866.152 280.349C708.192 337.021 532.045 286.88 463.716 254.726C433.571 278.842 398.904 276.832 385.339 272.813C337.107 337.624 224.817 322.552 194.672 272.813Z" fill="#9ED3FB"/>
<path d="M409.623 230.61C390.33 231.816 400.077 246.185 407.362 253.219C412.636 259.248 435.998 268.291 442.781 244.175C444.59 230.911 421.429 229.605 409.623 230.61Z" fill="white"/>
<path d="M447.304 266.031C431.629 269.648 435.246 281.103 439.015 286.379C440.773 289.142 447.003 292.408 457.855 283.364C459.402 282.108 461.623 280.35 462.377 276.582C462.377 265.277 452.58 264.775 447.304 266.031Z" fill="white"/>
<path d="M96.1132 131.886C72.6001 142.738 76.5206 160.523 85.5624 166.553C87.8232 168.06 92.3463 172.581 123.245 171.074C138.318 171.074 151.883 177.103 160.926 180.117C191.794 190.406 197.1 179.113 197.854 172.581C199.663 159.921 166.955 131.132 151.883 122.842C133.042 114.552 110.433 125.606 96.1132 131.886Z" fill="white"/>
<path d="M205.388 247.943C194.838 260.755 215.185 272.813 224.982 275.074C226.74 275.576 231.161 275.828 234.778 272.813C243.822 264.976 234.024 248.948 227.995 241.914C217.445 232.871 206.894 246.436 205.388 247.943Z" fill="white"/>
<path d="M130.026 57.2756C43.8114 74.7597 7.68764 26.3769 0.402588 0H956V458.958C829.994 471.619 751.767 365.76 728.405 311.247C631.941 288.337 576.173 214.281 560.346 180.117C491.013 237.995 420.423 200.716 393.795 174.841C244.879 221.265 155.901 115.807 130.026 57.2756Z" fill="white"/>
<path d="M858.349 232.117C772.134 232.117 674.462 162.03 657.129 109.276C632.261 143.943 648.085 189.914 697.072 197.45C732.041 292.708 792.03 354.204 886.986 345.914C893.015 387.514 935.218 404.446 955.566 407.712V296.175C906.581 309.74 862.117 281.856 858.349 232.117Z" fill="#E3F2FE"/>
<path d="M254.285 84.4061C179.596 94.6554 161.426 32.4059 160.171 0H956V233.624C900.284 233.624 851.094 194.687 837.04 164.29C735.397 201.972 682.693 125.102 665.376 79.1307C534.369 146.957 487.437 89.1791 478.653 54.2611C403.362 186.296 297.703 129.372 254.285 84.4061Z" fill="#E3F2FE"/>
<path d="M462.449 344.124C476.745 325.693 507.654 284.474 516.924 267.035C523.545 254.579 541.044 239.992 559.51 232.898C599.215 209.997 702.982 128.08 736.539 94.4585C755.629 76.2578 805.79 38.1826 832.503 30.0969C854.021 23.5835 884.728 16.6961 897.231 13.5662L903.937 130.94C887.671 128.095 849.235 127.423 825.623 147.493C823.312 149.332 802.283 166.648 790.82 177.411C788.38 182.571 786.355 186.919 785.014 189.82C778.121 201.285 760.8 225.776 746.663 232.018C729.053 240.875 716.796 264.171 712.87 274.711C704.826 290.268 686.516 310.186 678.366 318.2C672.037 322.734 666.659 325.277 662.236 326.541C658.096 328.067 657.062 346.079 657.062 354.895C657.234 379.041 645.715 381.712 639.934 380.029C643.101 392.441 644.606 409.882 635.93 421.02C633.16 423.695 626.515 426.087 622.101 414.262C621.637 415.374 621.109 416.41 620.531 417.371C617.762 421.977 613.862 424.869 610.564 426.244C605.211 425.04 595.365 411.26 582.252 393.138C579.135 378.219 573.561 342.304 569.806 320.628C566.31 300.447 570.301 289.651 582.576 279.891C591.422 271.774 611.02 257.195 615.119 254.957C594.026 266.556 576.858 277.024 567.657 283.008C561.139 285.192 536.357 316.5 517.073 335.719C491.943 358.29 463.202 352.887 462.449 344.124Z" fill="#E9D9DE"/>
<path d="M790.82 177.411C802.283 166.648 823.312 149.332 825.623 147.493C849.235 127.423 887.671 128.095 903.937 130.94L897.231 13.5662C884.728 16.6961 854.021 23.5835 832.503 30.0969C805.79 38.1826 755.629 76.2578 736.539 94.4585C702.982 128.08 599.215 209.997 559.51 232.898C541.044 239.992 523.545 254.579 516.924 267.035C507.654 284.474 476.745 325.694 462.449 344.124C463.202 352.887 491.943 358.29 517.073 335.719C536.357 316.5 561.139 285.192 567.657 283.008C576.858 277.024 594.026 266.556 615.119 254.957M816.852 126.103C806.763 143.286 790.389 178.19 785.014 189.82C778.121 201.285 760.8 225.776 746.663 232.018C729.053 240.875 716.796 264.171 712.87 274.711C704.826 290.268 686.516 310.186 678.366 318.2C672.037 322.734 666.659 325.277 662.236 326.541M710.248 175.975C700.428 183.783 688.084 206.429 683.139 216.777C682.611 218.537 682.008 220.337 681.343 222.163M681.343 222.163C674.347 241.369 660.471 263.46 653.882 272.798C647.151 284.768 636.913 310.038 645.245 322.357M681.343 222.163C679.08 223.143 676.818 224.14 674.56 225.15M615.119 254.957C611.02 257.195 591.422 271.774 582.576 279.891C570.301 289.651 566.31 300.447 569.806 320.628C573.561 342.304 579.135 378.219 582.252 393.138C595.365 411.26 605.211 425.04 610.564 426.244C613.862 424.869 617.762 421.977 620.531 417.371C621.109 416.41 621.637 415.374 622.101 414.262M615.119 254.957C632.944 245.155 653.571 234.545 674.56 225.15M674.56 225.15C651.857 240.001 623.411 294.388 612.026 319.726C608.415 335.784 611.732 363.021 615.25 376.155C625.401 393.55 625.54 406.009 622.101 414.262M645.245 322.357C645.961 323.415 646.814 324.378 647.819 325.229C649.684 327.044 654.497 328.751 662.236 326.541M645.245 322.357L639.263 334.021C633.863 345.2 635.379 362.928 636.812 370.394C637.846 372.923 638.967 376.242 639.934 380.029M622.101 414.262C626.515 426.087 633.16 423.695 635.93 421.02C644.606 409.882 643.101 392.441 639.934 380.029M639.934 380.029C645.715 381.712 657.234 379.041 657.062 354.895C657.062 346.079 658.096 328.067 662.236 326.541" stroke="#F5F0FF" stroke-width="2" stroke-linecap="round" stroke-linejoin="round"/>
<path d="M902.432 131.026C886.166 128.181 847.73 127.509 824.118 147.578C821.807 149.418 800.778 166.733 789.315 177.496C786.875 182.657 784.85 187.005 783.509 189.906C776.616 201.371 759.295 225.862 745.158 232.104C727.548 240.961 715.291 264.256 711.365 274.797C703.321 290.354 685.011 310.271 676.861 318.286C670.532 322.82 665.154 325.363 660.731 326.626C656.591 328.152 655.557 346.165 655.557 354.981C655.729 379.126 644.21 381.798 638.429 380.115C641.596 392.527 643.101 409.968 634.425 421.106C631.655 423.78 625.01 426.173 620.596 414.347C620.132 415.46 619.604 416.495 619.026 417.457C616.257 422.062 612.357 424.954 609.059 426.329C609.797 417.229 609.059 394.625 600.202 377.015C597.465 364.339 592.618 334.12 595.129 314.652C597.445 302.328 606.14 272.199 622.4 250.271C619.406 251.876 616.474 253.47 613.614 255.042C592.521 266.642 575.353 277.109 566.152 283.094C559.634 285.278 534.852 316.586 515.569 335.804C490.438 358.376 461.697 352.973 460.944 344.209C475.534 344.131 512.335 332.064 542.827 284.427C588.339 243.249 660.189 229.939 671.696 225.846C672.149 225.642 672.602 225.439 673.055 225.236C675.313 224.225 677.575 223.229 679.838 222.249C672.842 241.455 658.966 263.546 652.377 272.883C645.646 284.853 635.408 310.124 643.74 322.442C668.736 308.182 690.297 276.001 698.337 258.18C702.28 249.442 718.609 229.847 729.485 222.012C745.597 208.074 770.638 167.212 781.145 148.524C813.202 96.5698 874.156 94.144 900.626 99.4254L902.432 131.026Z" fill="#87B7EF"/>
<path d="M790.82 177.411C802.283 166.648 823.312 149.332 825.623 147.493C849.235 127.423 887.671 128.095 903.937 130.94L897.231 13.5662C884.728 16.6961 854.021 23.5835 832.503 30.0969C805.79 38.1826 755.629 76.2578 736.539 94.4585C702.982 128.08 599.215 209.997 559.51 232.898C541.044 239.992 523.545 254.579 516.924 267.035C507.654 284.474 476.745 325.694 462.449 344.124C463.202 352.887 491.943 358.29 517.073 335.719C536.357 316.5 561.139 285.192 567.657 283.008C576.858 277.024 594.026 266.556 615.119 254.957M816.852 126.103C806.763 143.286 790.389 178.19 785.014 189.82C778.121 201.285 760.8 225.776 746.663 232.018C729.053 240.875 716.796 264.171 712.87 274.711C704.826 290.268 686.516 310.186 678.366 318.2C672.037 322.734 666.659 325.277 662.236 326.541M710.248 175.975C700.428 183.783 688.084 206.429 683.139 216.777C682.611 218.537 682.008 220.337 681.343 222.163M681.343 222.163C674.347 241.369 660.471 263.46 653.882 272.798C647.151 284.768 636.913 310.038 645.245 322.357M681.343 222.163C679.08 223.143 676.818 224.14 674.56 225.15M615.119 254.957C611.02 257.195 591.422 271.774 582.576 279.891C570.301 289.651 566.31 300.447 569.806 320.628C573.561 342.304 579.135 378.219 582.252 393.138C595.365 411.26 605.211 425.04 610.564 426.244C613.862 424.869 617.762 421.977 620.531 417.371C621.109 416.41 621.637 415.374 622.101 414.262M615.119 254.957C632.944 245.155 653.571 234.545 674.56 225.15M674.56 225.15C651.857 240.001 623.411 294.388 612.026 319.726C608.415 335.784 611.732 363.021 615.25 376.155C625.401 393.55 625.54 406.009 622.101 414.262M645.245 322.357C645.961 323.415 646.814 324.378 647.819 325.229C649.684 327.044 654.497 328.751 662.236 326.541M645.245 322.357L639.263 334.021C633.863 345.2 635.379 362.928 636.812 370.394C637.846 372.923 638.967 376.242 639.934 380.029M622.101 414.262C626.515 426.087 633.16 423.695 635.93 421.02C644.606 409.882 643.101 392.441 639.934 380.029M639.934 380.029C645.715 381.712 657.234 379.041 657.062 354.895C657.062 346.079 658.096 328.067 662.236 326.541" stroke="#F5F0FF" stroke-width="3" stroke-linecap="round" stroke-linejoin="round"/>
<path d="M850.729 76.1162C722.899 111.537 619.882 38.4349 619.883 0H956V177.856C937.955 171.073 928.181 159.015 928.181 147.711C876.296 140.174 850.729 104 850.729 76.1162Z" fill="white"/>
<path d="M894.203 37.4518C833.31 67.4133 778.396 24.9679 758.55 0H956V78.8879C916.209 85.9001 898.222 54.1856 894.203 37.4518Z" fill="#E3F2FE"/>
</svg>
