<svg width="2232" height="309" viewBox="0 0 2232 309" fill="none" xmlns="http://www.w3.org/2000/svg">
<path d="M943 298C802.2 333.2 751.667 271.333 744 236V0H1488V141C1468.8 217.8 1426.67 251 1408 258C1359 285 1289.33 256 1277 236C1207.4 232 1216 179 1229 153C1177.8 175.4 1144.33 162.333 1134 153C1115.6 211.4 1065.67 216.667 1043 212C1028.6 259.2 970.333 289 943 298Z" fill="#85C6F7"/>
<path d="M2033 298C2173.8 333.2 2224.33 271.333 2232 236V0H1488V141C1507.2 217.8 1549.33 251 1568 258C1617 285 1686.67 256 1699 236C1768.6 232 1760 179 1747 153C1798.2 175.4 1831.67 162.333 1842 153C1860.4 211.4 1910.33 216.667 1933 212C1947.4 259.2 2005.67 289 2033 298Z" fill="#85C6F7"/>
<path d="M545 298C685.8 333.2 736.333 271.333 744 236V0H0V141C19.2 217.8 61.3333 251 80 258C129 285 198.667 256 211 236C280.6 232 272 179 259 153C310.2 175.4 343.667 162.333 354 153C372.4 211.4 422.333 216.667 445 212C459.4 259.2 517.667 289 545 298Z" fill="#85C6F7"/>
</svg>
