<svg width="18" height="18" viewBox="0 0 18 18" fill="none" xmlns="http://www.w3.org/2000/svg">
<path d="M17.9447 11.7C17.9447 15.18 14.8847 16.08 10.2847 16.18V18H7.88469V16.18C2.96469 16.02 0.0646875 14.9 0.0646875 11.18H3.66469C3.66469 12.48 4.58469 13.16 7.88469 13.3V10.18C2.60469 9.82 0.484688 8.8 0.484688 5.86C0.484688 2.98 3.24469 1.94 7.88469 1.82V-2.38419e-07H10.2847V1.84C14.7047 2.06 17.3447 3.44 17.3447 6.58H13.7447C13.7447 5.32 12.7047 4.84 10.2847 4.7V7.64C15.0447 7.92 17.9447 8.44 17.9447 11.7ZM4.08469 6.04C4.08469 7.02 4.76469 7.28 7.88469 7.48V4.66C4.82469 4.7 4.08469 5.06 4.08469 6.04ZM10.2847 13.34C13.3847 13.26 14.3447 12.84 14.3447 11.82C14.3447 10.78 13.7047 10.52 10.2847 10.3V13.34Z" fill="#09121A"/>
</svg>
