<svg width="32" height="24" viewBox="0 0 32 24" fill="none" xmlns="http://www.w3.org/2000/svg">
<path fill-rule="evenodd" clip-rule="evenodd" d="M15.7252 6.76781C15.7252 7.64591 15.9525 8.46857 16.3489 9.17511C15.7741 9.70771 13.7219 11.5613 11.2968 13.737C9.93094 14.9622 8.68882 16.0981 7.76562 16.9616C7.5952 16.8654 7.39927 16.8106 7.19084 16.8106C6.53316 16.8106 6 17.3556 6 18.0279C6 18.2456 6.05585 18.4499 6.15372 18.6266C6.96392 20.7503 16.3375 22.682 21.4921 21.7669C27.2628 20.7426 29.162 18.2801 27.6674 13.7607C27.6224 13.6246 27.5796 13.4912 27.5388 13.3604C30.012 13.3028 32 11.1908 32 8.59378C32 5.96059 29.9562 3.82597 27.4351 3.82597C26.3203 3.82597 25.2989 4.24335 24.5062 4.93665C23.8188 3.21228 22.19 2 20.2901 2C17.769 2 15.7252 4.13462 15.7252 6.76781ZM14.1374 15.0861C14.1374 16.2626 15.0704 17.2164 16.2214 17.2164C17.3723 17.2164 18.3053 16.2626 18.3053 15.0861C18.3053 13.9096 17.3723 12.9558 16.2214 12.9558C15.0704 12.9558 14.1374 13.9096 14.1374 15.0861Z" fill="#060B11"/>
</svg>
